<?xml version="1.0" standalone="no"?>
<!DOCTYPE svg PUBLIC "-//W3C//DTD SVG 20010904//EN"
 "http://www.w3.org/TR/2001/REC-SVG-20010904/DTD/svg10.dtd">
<svg version="1.0" xmlns="http://www.w3.org/2000/svg"
 width="512.000000pt" height="512.000000pt" viewBox="0 0 512.000000 512.000000"
 preserveAspectRatio="xMidYMid meet">
<metadata>
Created by potrace 1.14, written by Peter Selinger 2001-2017
</metadata>
<g transform="translate(0.000000,512.000000) scale(0.100000,-0.100000)"
fill="#000000" stroke="none">
<path d="M925 5114 c-11 -2 -45 -9 -75 -15 -80 -15 -176 -47 -245 -82 -84 -42
-175 -105 -176 -122 -1 -8 -2 -21 -3 -27 -1 -7 1 -22 4 -32 5 -15 -6 -33 -45
-73 -47 -47 -56 -52 -84 -47 -20 4 -39 1 -53 -8 -33 -22 -106 -154 -140 -255
-57 -166 -57 -153 -56 -1328 0 -1027 1 -1085 20 -1174 74 -360 324 -642 670
-755 112 -36 132 -38 426 -43 l272 -4 1 -482 c0 -265 2 -492 5 -505 12 -64 77
-134 142 -152 53 -14 115 -6 155 19 28 17 153 145 337 342 14 15 79 85 146
155 67 71 132 141 145 155 23 26 250 265 379 401 l65 68 705 3 c388 2 719 6
735 10 17 4 38 10 47 13 10 3 30 8 45 10 64 12 290 123 313 153 3 4 16 15 30
24 41 28 130 118 176 179 59 75 117 186 148 279 56 166 55 160 53 1349 -2 602
-6 1109 -10 1125 -12 50 -17 75 -17 80 -1 17 -66 179 -92 225 -118 212 -316
382 -534 460 -32 11 -79 25 -104 31 -25 6 -54 14 -65 17 -21 7 -3286 13 -3320
6z"/>
</g>
</svg>
